<?xml version="1.0" encoding="UTF-8"?>
<!-- Generator: Adobe Illustrator 25.0.0, SVG Export Plug-In . SVG Version: 6.00 Build 0)  -->
<svg xmlns="http://www.w3.org/2000/svg" xmlns:xlink="http://www.w3.org/1999/xlink" version="1.1" id="Layer_1" x="0px" y="0px" viewBox="0 0 670.4 153" style="enable-background:new 0 0 670.4 153;" xml:space="preserve">
<style type="text/css">
	.st0{fill:#E4E4E4;}
	.st1{fill:#099F9C;}
	.st2{fill:#F4A51D;}
	.st3{fill:#CE2F79;}
</style>
<g>
	<g>
		<g>
			<g>
				<g>
					<g>
						<path class="st0" d="M253.98,80.95c0,6.87-0.94,13.59-3.44,19.99c-4.68,11.87-15.3,21.55-30.76,21.55        c-7.81,0-12.96-2.34-16.4-6.56c-0.78-0.78-1.41-0.47-1.41,0.62v29.83c0,1.87-1.09,2.97-2.97,2.97h-23.42        c-1.87,0-2.97-1.09-2.97-2.97V43.01c0-1.87,1.09-2.97,2.97-2.97h23.42c1.87,0,2.97,1.09,2.97,2.97v3.28        c0,1.09,0.78,1.25,1.41,0.31c3.75-4.84,9.21-7.81,17.65-7.81c13.74,0,25.92,9.37,30.61,24.67        C253.36,69.24,253.98,75.18,253.98,80.95z M223.22,80.48c0-4.37-0.78-8.43-2.34-11.4c-1.72-3.12-4.37-5.15-8.28-5.15        s-6.56,2.03-8.28,5.31c-1.56,2.97-2.34,6.87-2.34,11.24c0,4.84,0.78,8.9,2.5,12.02c1.72,2.97,4.37,4.84,8.12,4.84        c3.9,0,6.56-1.87,8.28-5.15C222.44,89.23,223.22,85.01,223.22,80.48z"></path>
						<path class="st0" d="M266.78,92.98c-1.09-3.9-1.56-8.12-1.56-12.49c0-5,0.62-9.68,1.87-13.9        c4.84-17.02,18.89-27.79,38.41-27.79c19.68,0,33.26,10.93,38.1,27.48c1.25,4.37,1.87,8.9,1.87,13.9        c0,4.22-0.47,8.12-1.25,11.87c-4.22,18.42-18.43,30.45-38.88,30.45C285.36,122.49,271.15,110.78,266.78,92.98z M315.34,87.35        c0.47-2.19,0.62-4.53,0.62-7.03c0-2.65-0.31-5-0.78-7.18c-1.41-5.62-4.53-9.21-9.84-9.21c-5.62,0-8.59,3.75-9.84,9.21        c-0.62,2.19-0.78,4.68-0.78,7.18s0.16,4.84,0.62,7.03c1.41,5.93,4.53,9.99,9.99,9.99C310.97,97.35,314.1,93.13,315.34,87.35z"></path>
						<path class="st0" d="M360.78,118.27V14.9c0-1.87,1.09-2.97,2.97-2.97h23.42c1.87,0,2.97,1.09,2.97,2.97v103.37        c0,1.87-1.09,2.97-2.97,2.97h-23.42C361.88,121.24,360.78,120.15,360.78,118.27z"></path>
						<path class="st0" d="M406.22,20.37c0-9.84,6.87-16.4,16.86-16.4c10.15,0,16.86,6.56,16.86,16.4s-6.71,16.4-16.86,16.4        C413.09,36.76,406.22,30.2,406.22,20.37z M408.41,118.27V43.01c0-1.87,1.09-2.97,2.97-2.97h23.42c1.87,0,2.97,1.09,2.97,2.97        v75.27c0,1.87-1.09,2.97-2.97,2.97h-23.42C409.5,121.24,408.41,120.15,408.41,118.27z"></path>
						<path class="st0" d="M454.16,117.65l23.58-36.07c0.31-0.62,0.31-1.25,0-1.87l-23.58-36.07c-1.25-2.03-0.47-3.59,1.87-3.59        h24.98c1.56,0,2.81,0.62,3.59,2.03l9.06,14.83c0.47,0.94,1.4,0.94,1.87,0l9.06-14.83c0.78-1.41,2.03-2.03,3.59-2.03h26.86        c2.34,0,3.12,1.56,1.87,3.59L513.34,79.7c-0.31,0.62-0.31,1.25,0,1.87l23.58,36.07c1.25,2.03,0.47,3.59-1.87,3.59h-24.98        c-1.56,0-2.81-0.62-3.59-2.03l-9.06-14.83c-0.47-0.94-1.41-0.94-1.87,0l-9.06,14.83c-0.78,1.41-2.03,2.03-3.59,2.03h-26.86        C453.69,121.24,452.91,119.68,454.16,117.65z"></path>
						<path class="st0" d="M547.06,111.56c0-5.15,4.53-9.21,9.68-9.21c5,0,9.68,4.06,9.68,9.21c0,5.15-4.37,9.21-9.68,9.21        C551.12,120.77,547.06,116.71,547.06,111.56z"></path>
						<path class="st0" d="M636.85,67.21v52c0,1.25-0.78,2.03-2.03,2.03h-7.03c-1.25,0-2.03-0.78-2.03-2.03v-5.62        c0-0.62-0.47-0.94-0.94-0.31c-5.78,6.09-14.52,9.21-24.36,9.21c-13.27,0-25.76-6.4-25.76-22.8c0-15.62,11.87-25.3,32.17-25.3        h18.11c0.47,0,0.78-0.31,0.78-0.78v-5.78c0-10.15-5.31-17.18-18.27-17.18c-9.84,0-16.24,4.06-17.96,10.62        c-0.31,1.25-1.09,1.72-2.34,1.56l-7.65-0.94c-1.25-0.16-2.03-0.62-1.87-1.72c2.03-11.4,13.58-19.21,29.67-19.21        C626.38,40.98,636.85,51.75,636.85,67.21z M625.76,95.94V83.92c0-0.47-0.31-0.78-0.78-0.78h-16.4        c-13.58,0-22.8,5.78-22.8,15.93c0,9.52,7.65,13.9,17.18,13.9C614.52,112.96,625.76,106.87,625.76,95.94z"></path>
						<path class="st0" d="M647.15,19.9c0-4.68,3.43-7.96,8.43-7.96s8.43,3.28,8.43,7.96c0,4.84-3.44,8.12-8.43,8.12        S647.15,24.74,647.15,19.9z M650.12,119.21V44.26c0-1.25,0.78-2.03,2.03-2.03h7.03c1.25,0,2.03,0.78,2.03,2.03v74.95        c0,1.25-0.78,2.03-2.03,2.03h-7.03C650.9,121.24,650.12,120.46,650.12,119.21z"></path>
					</g>
				</g>
			</g>
		</g>
	</g>
	<path class="st0" d="M11.03,116.44h26.62c2.56,0,4.64-2.08,4.64-4.64V39.96c0-2.56-2.08-4.64-4.64-4.64H11.03   c-2.56,0-4.64,2.08-4.64,4.64v71.83C6.38,114.36,8.46,116.44,11.03,116.44z"></path>
	<path class="st0" d="M63.3,84.77h26.62c2.56,0,4.64-2.08,4.64-4.64V8.3c0-2.56-2.08-4.64-4.64-4.64H63.3   c-2.56,0-4.64,2.08-4.64,4.64v71.83C58.65,82.7,60.73,84.77,63.3,84.77z"></path>
	<path class="st0" d="M113.46,116.44h26.62c2.56,0,4.64-2.08,4.64-4.64V39.96c0-2.56-2.08-4.64-4.64-4.64h-26.62   c-2.56,0-4.64,2.08-4.64,4.64v71.83C108.81,114.36,110.89,116.44,113.46,116.44z"></path>
	<path class="st1" d="M11.03,118.09h26.62c2.56,0,4.64-2.08,4.64-4.64V82.18c0-2.56-2.08-4.64-4.64-4.64H11.03   c-2.56,0-4.64,2.08-4.64,4.64v31.27C6.38,116.02,8.46,118.09,11.03,118.09z"></path>
	<path class="st2" d="M63.3,118.09h26.62c2.56,0,4.64-2.08,4.64-4.64V41.62c0-2.56-2.08-4.64-4.64-4.64H63.3   c-2.56,0-4.64,2.08-4.64,4.64v71.83C58.65,116.02,60.73,118.09,63.3,118.09z"></path>
	<path class="st3" d="M113.46,118.09h26.62c2.56,0,4.64-2.08,4.64-4.64V82.18c0-2.56-2.08-4.64-4.64-4.64h-26.62   c-2.56,0-4.64,2.08-4.64,4.64v31.27C108.81,116.02,110.89,118.09,113.46,118.09z"></path>
</g>
</svg>
